<svg xmlns="http://www.w3.org/2000/svg" viewBox="0 0 200 200">
  <g fill="gray">
    <!-- Head -->
    <rect x="50" y="30" width="100" height="80" rx="15" ry="15" fill="gray" />
    
    <!-- Eyes -->
    <circle cx="75" cy="60" r="10" fill="#ffffff" />
    <circle cx="125" cy="60" r="10" fill="#ffffff" />
    <circle cx="75" cy="60" r="5" fill="#000000" />
    <circle cx="125" cy="60" r="5" fill="#000000" />

    <!-- Mouth -->
    <rect x="75" y="90" width="50" height="10" rx="5" ry="5" fill="#000000" />

    <!-- Antenna -->
    <line x1="100" y1="20" x2="100" y2="30" stroke="#ffffff" stroke-width="3"/>
    <circle cx="100" cy="15" r="5" fill="#ffffff" />

    <!-- Body -->
    <rect x="40" y="110" width="120" height="70" rx="15" ry="15" fill="gray" />

    <!-- Arms -->
    <rect x="20" y="120" width="20" height="50" rx="10" ry="10" fill="gray" />
    <rect x="160" y="120" width="20" height="50" rx="10" ry="10" fill="gray" />

    <!-- Megaphone in Right Arm -->
    <polygon points="160,120 200,100 200,140 160,130" fill="#d3d3d3" />
    <line x1="200" y1="100" x2="200" y2="140" stroke="#000000" stroke-width="2" />

    <!-- Buttons on Body -->
    <circle cx="70" cy="140" r="5" fill="#ffffff" />
    <circle cx="90" cy="140" r="5" fill="#ffffff" />
    <circle cx="110" cy="140" r="5" fill="#ffffff" />
    <circle cx="130" cy="140" r="5" fill="#ffffff" />

    <!-- Tie -->
    <polygon points="100,110 90,130 110,130" fill="#ff0000" />
  </g>
</svg>
