<svg xmlns="http://www.w3.org/2000/svg" viewBox="0 0 200 200">
  <g fill="gray">
    <!-- Head -->
    <rect x="50" y="30" width="100" height="80" rx="15" ry="15" fill="gray" />
    
    <!-- Eyes -->
    <circle cx="75" cy="60" r="10" fill="#ffffff" />
    <circle cx="125" cy="60" r="10" fill="#ffffff" />
    <circle cx="75" cy="60" r="5" fill="#000000" />
    <circle cx="125" cy="60" r="5" fill="#000000" />

    <!-- Mouth -->
    <rect x="75" y="90" width="50" height="10" rx="5" ry="5" fill="#000000" />

    <!-- Antenna -->
    <line x1="100" y1="20" x2="100" y2="30" stroke="#ffffff" stroke-width="3"/>
    <circle cx="100" cy="15" r="5" fill="#ffffff" />

    <!-- Chef Hat -->
    <rect x="60" y="10" width="80" height="20" rx="10" ry="10" fill="#d3d3d3" />
    <circle cx="70" cy="10" r="10" fill="#d3d3d3" />
    <circle cx="130" cy="10" r="10" fill="#d3d3d3" />

    <!-- Body -->
    <rect x="40" y="110" width="120" height="70" rx="15" ry="15" fill="gray" />

    <!-- Arms -->
    <rect x="20" y="120" width="20" height="50" rx="10" ry="10" fill="gray" />
    <rect x="160" y="120" width="20" height="50" rx="10" ry="10" fill="gray" />

    <!-- Cooking Spoon in Right Arm -->
    <line x1="170" y1="125" x2="170" y2="80" stroke="#8b8b8b" stroke-width="4" />
    <circle cx="170" cy="75" r="5" fill="#8b8b8b" />

    <!-- Buttons on Body -->
    <circle cx="70" cy="140" r="5" fill="#ffffff" />
    <circle cx="90" cy="140" r="5" fill="#ffffff" />
    <circle cx="110" cy="140" r="5" fill="#ffffff" />
    <circle cx="130" cy="140" r="5" fill="#ffffff" />

    <!-- Apron -->
    <rect x="55" y="120" width="90" height="40" rx="10" ry="10" fill="#d3d3d3" />
    <line x1="55" y1="120" x2="145" y2="120" stroke="#ffffff" stroke-width="2" />
    <line x1="55" y1="160" x2="145" y2="160" stroke="#ffffff" stroke-width="2" />
  </g>
</svg>
